<svg xmlns="http://www.w3.org/2000/svg" width="102" height="89" viewBox="0 0 102 89"><g><g><path fill="#fff" d="M86.56 12.152c0 1.088-.892 1.97-1.992 1.97s-1.992-.882-1.992-1.97.893-1.97 1.992-1.97c1.1 0 1.993.882 1.993 1.97zM102 27.372c0 20.054-21.45 36.934-49.695 61.146A2 2 0 0 1 51 89a2 2 0 0 1-1.305-.482C21.516 64.364 0 47.454 0 27.372 0 12.504 10.537 0 25.65 0c7.894 0 15.098 3.027 20.833 8.754A35.01 35.01 0 0 1 51 14.313a34.964 34.964 0 0 1 4.517-5.56C61.252 3.028 68.456 0 76.351 0c7.22 0 13.814 2.91 18.568 8.196C99.485 13.272 102 20.082 102 27.372zm-3.984 0c0-13.358-9.314-23.431-21.665-23.431-6.858 0-12.882 2.519-17.904 7.488-3.826 3.785-5.612 7.648-5.63 7.687a1.996 1.996 0 0 1-1.816 1.162h-.004a1.993 1.993 0 0 1-1.815-1.162c-.017-.039-1.802-3.902-5.629-7.687C38.531 6.46 32.507 3.941 25.65 3.941 13.3 3.94 3.984 14.014 3.984 27.37 3.984 45.29 24.391 61.648 51 84.423 76.263 62.8 98.016 45.694 98.016 27.372zm-3.985 0c0 6.636-3.017 13.46-9.494 21.478a2.007 2.007 0 0 1-2.8.31c-.86-.68-1-1.92-.313-2.77 5.883-7.281 8.623-13.324 8.623-19.018 0-2.899-.724-5.86-2.04-8.34a1.96 1.96 0 0 1 .84-2.66 2.003 2.003 0 0 1 2.69.83c1.631 3.078 2.494 6.594 2.494 10.17zM72.117 39.738v11.823c0 1.088-.892 1.97-1.992 1.97H58.969v11.035c0 1.089-.892 1.97-1.993 1.97H45.023c-1.1 0-1.992-.881-1.992-1.97V53.531H31.875c-1.1 0-1.992-.882-1.992-1.97V39.738c0-1.088.892-1.97 1.992-1.97h11.156V26.733c0-1.088.892-1.97 1.992-1.97h11.954c1.1 0 1.992.882 1.992 1.97v11.035h11.156c1.1 0 1.992.882 1.992 1.97zm-3.984 1.97H56.977c-1.1 0-1.993-.881-1.993-1.97V28.704h-7.968v11.034c0 1.089-.892 1.97-1.993 1.97H33.867v7.882h11.156c1.1 0 1.993.883 1.993 1.97v11.036h7.968V51.56c0-1.088.892-1.97 1.993-1.97h11.156z"/></g></g></svg>