<svg xmlns="http://www.w3.org/2000/svg" width="90" height="90" viewBox="0 0 90 90"><g><g><path fill="#fff" d="M83.645 19.063l-9.318 9.319 9.586 9.586-3.73 3.73-5.247-5.247-41.414 41.414-4.415-4.414-8.828 8.829-4.415-4.415L3.73 90 0 86.27l12.135-12.134L7.72 69.72l8.829-8.829-4.414-4.414 41.414-41.415-5.247-5.247 3.73-3.73 9.586 9.587 9.318-9.319-2.624-2.625L72.042 0 90 17.96l-3.73 3.73zM25.378 69.721l-5.1-5.1-5.099 5.1 5.1 5.1zm28.47-19.641L39.92 36.15l-3.772 3.773 3.214 3.213-3.73 3.73-3.213-3.214-3.772 3.772 3.213 3.213-3.73 3.73-3.213-3.214-5.323 5.324 13.928 13.928zm17.359-17.36L57.278 18.794l-6.127 6.127 3.214 3.214-3.73 3.73-3.214-3.214-3.771 3.772L57.578 46.35zm8.709-17.386l-5.25-5.25-9.318 9.318 5.25 5.25z"/></g></g></svg>