<svg xmlns="http://www.w3.org/2000/svg" width="75" height="88" viewBox="0 0 75 88"><g><g><path fill="#fff" d="M.088 25.698a3.357 3.357 0 0 1 1.653-3.848C.653 12.207 4.217 7.349 6.363 5.369 6.2 4.442 6.568 3.45 7.38 2.92L11.332.333c1.03-.676 2.326-.335 2.893.765l1.88 3.645c.567 1.097.065 2.273-1.117 2.622l-4.464 1.32c-1.132.334-2.486-.208-3.127-1.202-1.781 1.879-4.342 6.06-3.458 14.036a3.352 3.352 0 0 1 2.606 2.388c1.055 3.805 4.086 11.605 8.582 16.404 1.463-.518 3.12-.446 4.577.374 1.028.576 2.032.867 3.06.888h.202c.975-.02 1.926-.282 2.899-.803 1.492-.797 3.175-.824 4.64-.258 4.598-4.777 7.695-12.747 8.766-16.605a3.342 3.342 0 0 1 2.607-2.39C42.761 13.541 40.2 9.36 38.42 7.482c-.64.994-1.995 1.536-3.128 1.202l-4.463-1.32c-1.184-.35-1.683-1.524-1.117-2.623l1.881-3.644c.565-1.1 1.862-1.441 2.893-.766l3.947 2.586c.814.531 1.181 1.522 1.02 2.448 2.148 1.981 5.709 6.84 4.62 16.482a3.354 3.354 0 0 1 1.653 3.847c-.207.75-3.841 13.596-11.708 20.724a5.572 5.572 0 0 1-2.894 4.22 17.781 17.781 0 0 1-5.764 1.932c-.844 3.255-2.625 8.58-6.181 14.286-1.593 2.556-.828 5.084.096 6.756 2.503 4.529 8.432 7.691 14.416 7.691 4.625 0 7.506-2.606 9.107-4.794 3.776-5.153 4.55-13.363 2.024-21.428-4.004-12.791 1.718-20.973 6.677-24.607-.2-.867-.316-1.767-.316-2.695 0-6.59 5.331-11.934 11.908-11.934 6.576 0 11.907 5.342 11.907 11.934 0 6.593-5.331 11.937-11.907 11.937a11.83 11.83 0 0 1-8.25-3.343c-2.626 2.173-6.594 7.225-3.627 16.698 3.2 10.216 2.073 20.466-3.015 27.413-3.558 4.856-8.712 7.531-14.507 7.531-8.439 0-16.585-4.48-20.275-11.15-2.504-4.525-2.474-9.469.08-13.566 2.69-4.31 4.2-8.335 5.023-11.116a18.23 18.23 0 0 1-4.274-1.738 5.588 5.588 0 0 1-2.827-4.386C3.816 38.869.293 26.434.089 25.698zm58.35 2.081a4.657 4.657 0 0 0 4.653 4.663 4.658 4.658 0 0 0 4.652-4.663 4.658 4.658 0 0 0-4.652-4.662 4.657 4.657 0 0 0-4.653 4.662z"/></g></g></svg>